<svg width="497" height="142" viewBox="0 0 497 142" fill="none" xmlns="http://www.w3.org/2000/svg">
<path d="M10.4766 104V0.921875H86.9062V18.3594H31.2891V41.2109H83.0391V58.5781H31.2891V86.6328H88.875V104H10.4766ZM127.567 29.3281H193.731V104H174.043V45.3594H147.113V78.8984C147.113 87.4297 146.129 93.4297 144.16 96.8984C142.192 100.32 140.012 102.57 137.621 103.648C135.231 104.727 131.387 105.266 126.09 105.266C122.949 105.266 118.801 104.844 113.645 104V89.4453C114.067 89.4453 115.168 89.4922 116.949 89.5859C119.012 89.7266 120.606 89.7969 121.731 89.7969C124.402 89.7969 126.043 88.9297 126.652 87.1953C127.262 85.4141 127.567 80.5156 127.567 72.5V29.3281ZM270.883 80.2344L290.571 83.5391C288.039 90.7578 284.032 96.2656 278.547 100.062C273.11 103.812 266.289 105.688 258.086 105.688C245.102 105.688 235.492 101.445 229.258 92.9609C224.336 86.1641 221.875 77.5859 221.875 67.2266C221.875 54.8516 225.11 45.1719 231.578 38.1875C238.047 31.1562 246.227 27.6406 256.117 27.6406C267.227 27.6406 275.992 31.3203 282.414 38.6797C288.836 45.9922 291.907 57.2188 291.625 72.3594H242.125C242.266 78.2188 243.86 82.7891 246.907 86.0703C249.953 89.3047 253.75 90.9219 258.297 90.9219C261.391 90.9219 263.992 90.0781 266.102 88.3906C268.211 86.7031 269.805 83.9844 270.883 80.2344ZM272.008 60.2656C271.867 54.5469 270.391 50.2109 267.578 47.2578C264.766 44.2578 261.344 42.7578 257.313 42.7578C253 42.7578 249.438 44.3281 246.625 47.4688C243.813 50.6094 242.43 54.875 242.477 60.2656H272.008ZM322.864 29.3281H342.622V56.6797H370.887V29.3281H390.715V104H370.887V72.6406H342.622V104H322.864V29.3281ZM441.29 52.1094L423.36 48.875C425.376 41.6562 428.844 36.3125 433.766 32.8438C438.688 29.375 446.001 27.6406 455.704 27.6406C464.516 27.6406 471.079 28.6953 475.391 30.8047C479.704 32.8672 482.727 35.5156 484.462 38.75C486.243 41.9375 487.133 47.8203 487.133 56.3984L486.922 79.4609C486.922 86.0234 487.227 90.875 487.837 94.0156C488.493 97.1094 489.688 100.438 491.422 104H471.876C471.36 102.688 470.727 100.742 469.977 98.1641C469.649 96.9922 469.415 96.2188 469.274 95.8438C465.899 99.125 462.29 101.586 458.446 103.227C454.602 104.867 450.501 105.688 446.141 105.688C438.454 105.688 432.383 103.602 427.93 99.4297C423.524 95.2578 421.321 89.9844 421.321 83.6094C421.321 79.3906 422.329 75.6406 424.344 72.3594C426.36 69.0312 429.172 66.5 432.782 64.7656C436.438 62.9844 441.688 61.4375 448.532 60.125C457.766 58.3906 464.165 56.7734 467.727 55.2734V53.3047C467.727 49.5078 466.79 46.8125 464.915 45.2188C463.04 43.5781 459.501 42.7578 454.297 42.7578C450.782 42.7578 448.04 43.4609 446.071 44.8672C444.102 46.2266 442.508 48.6406 441.29 52.1094ZM467.727 68.1406C465.196 68.9844 461.188 69.9922 455.704 71.1641C450.219 72.3359 446.633 73.4844 444.946 74.6094C442.368 76.4375 441.079 78.7578 441.079 81.5703C441.079 84.3359 442.11 86.7266 444.172 88.7422C446.235 90.7578 448.86 91.7656 452.047 91.7656C455.61 91.7656 459.008 90.5938 462.243 88.25C464.633 86.4688 466.204 84.2891 466.954 81.7109C467.469 80.0234 467.727 76.8125 467.727 72.0781V68.1406Z" fill="white"/>
<path d="M0 126.781H496.274V141.898H0V126.781Z" fill="white"/>
</svg>
